<svg id="Layer_1" data-name="Layer 1" xmlns="http://www.w3.org/2000/svg" viewBox="0 0 328.856 119.028">
  <g>
    <g>
      <path d="M166.078,54.866l-4.05-5.85h-4.47v5.85H152.7v-21h9.09c5.61,0,9.12,2.91,9.12,7.62a6.828,6.828,0,0,1-4.32,6.63l4.71,6.749Zm-4.56-17.039h-3.96v7.319h3.96c2.97,0,4.47-1.38,4.47-3.659C165.988,39.177,164.488,37.827,161.518,37.827Z"/>
      <path d="M174.628,44.367c0-6.24,4.86-10.86,11.489-10.86,6.6,0,11.49,4.59,11.49,10.86s-4.89,10.859-11.49,10.859C179.488,55.226,174.628,50.606,174.628,44.367Zm18.059,0a6.571,6.571,0,1,0-13.139,0,6.571,6.571,0,1,0,13.139,0Z"/>
      <path d="M200.818,52.8l1.65-3.66a12.347,12.347,0,0,0,6.929,2.19c2.88,0,4.05-.96,4.05-2.249,0-3.931-12.209-1.23-12.209-9.03,0-3.57,2.88-6.54,8.849-6.54a14.087,14.087,0,0,1,7.29,1.86l-1.5,3.689a11.87,11.87,0,0,0-5.82-1.649c-2.88,0-3.989,1.08-3.989,2.4,0,3.871,12.209,1.2,12.209,8.91,0,3.51-2.91,6.51-8.91,6.51A14.967,14.967,0,0,1,200.818,52.8Z"/>
      <path d="M230.457,46.617l-2.82,2.939v5.31h-4.829v-21h4.829v9.81l9.3-9.81h5.4l-8.7,9.359,9.21,11.64h-5.67Z"/>
      <path d="M246.207,33.867h4.86v21h-4.86Z"/>
      <path d="M257.247,33.867h4.859V50.906h10.53v3.96H257.247Z"/>
      <path d="M276.566,33.867h9.54c6.87,0,11.579,4.14,11.579,10.5s-4.709,10.5-11.579,10.5h-9.54Zm9.3,17.009c4.17,0,6.9-2.489,6.9-6.509s-2.73-6.51-6.9-6.51h-4.44V50.876Z"/>
      <path d="M318.805,50.966v3.9H302.546v-21h15.869v3.9H307.376v4.56h9.749v3.779h-9.749v4.86Z"/>
    </g>
    <g>
      <path d="M30.651,33.818a2.507,2.507,0,0,0-.76-1.864s-3.659,8.495-8.6,9.964c-2.6,5.474-4.236,7.66-4.783,8.312a4.9,4.9,0,0,0,2.638.684c2.176-.069,5.586-.648,8.7-7.823,0,0,2.955-6.681,2.805-9.273"/>
      <path d="M37.275,41.522c1.339-3.988-.416-6.141-.416-6.141a5.662,5.662,0,0,0-4.551,3.858c-3.5,9.045-6.51,13.664-7.13,14.439a5.209,5.209,0,0,0,1.86.391c2.372.059,5.774-.819,8.751-8.265Z"/>
      <path d="M35.2,55.5c6.074.87,8.608-6.571,9.24-8.872a13.4,13.4,0,0,0,.465-4.424,9.55,9.55,0,0,0-1.066-3.447A7.077,7.077,0,0,0,39.3,44.048a41.008,41.008,0,0,1-4.271,11.429l.168.026"/>
      <path d="M97.735,41.918c-4.937-1.469-8.6-9.964-8.6-9.964a2.505,2.505,0,0,0-.761,1.864c-.149,2.592,2.806,9.273,2.806,9.273,3.11,7.175,6.523,7.754,8.695,7.823a4.9,4.9,0,0,0,2.64-.684c-.548-.652-2.183-2.838-4.782-8.312"/>
      <path d="M82.17,35.381s-1.757,2.153-.418,6.142L83.239,45.8c2.979,7.446,6.38,8.324,8.753,8.264a5.179,5.179,0,0,0,1.859-.39c-.62-.776-3.629-5.394-7.13-14.438a5.663,5.663,0,0,0-4.551-3.859"/>
      <path d="M75.189,38.76a9.562,9.562,0,0,0-1.067,3.447,13.421,13.421,0,0,0,.466,4.424c.632,2.3,3.167,9.742,9.239,8.873L84,55.476a40.972,40.972,0,0,1-4.269-11.428,7.079,7.079,0,0,0-4.538-5.288"/>
      <path d="M60.275,14.491s-1.207,1.246-1.981,1.135c-.657-.093-.907-.571-.847-1.352s2.828.217,2.828.217m8.114,44.7a5.9,5.9,0,0,0,2.862-.23s-6.609-6.143-6.609-11.825c0-2.925,3.006-2.387,3.006-2.387.838,5.4,2.568,6.754,5.774,6.873,0,0-1.653-2.693-1.653-8,0-5.955,2.831-7.689,2.831-7.689a10.9,10.9,0,0,1,2.157.508,13.846,13.846,0,0,1,2.361,1.2,8.879,8.879,0,0,1,.526-2.427,6.591,6.591,0,0,1,1.292-2.48,7.247,7.247,0,0,1,2.335.326,8.949,8.949,0,0,1,2.94,1.495A12.16,12.16,0,0,1,86.59,30.7a8.82,8.82,0,0,1,1.943-3.468l4.958,7.8c1.352,2.125,2.823,3.272,4.376,3.41a4.573,4.573,0,0,0,3.2-1.131c-.928-.668-2.866-2.741-5.383-6.682-3.248-5.093-4.415-7.808-5.674-9.519a3.871,3.871,0,0,0-6.181,4.663c-.929.665-1.814,1.274-2.524,1.716-3.2,2-7.521,4.982-12.585,4.982H66.6c-.7-4.14-2.4-14.209-2.389-14.909a2.057,2.057,0,0,1,1.482-2s-.378-.731-2.392-1.747A12.762,12.762,0,0,0,57.834,12.4a2.7,2.7,0,0,0-2.394,1.55,12.738,12.738,0,0,0-2-.232c-1.582-.023-2.672.606-2.693,2.45-.024,1.933.589,2.372.589,2.372s.057-.949.593-1.046a7.413,7.413,0,0,1,1.421-.056,10.073,10.073,0,0,1,2.619.472h0a33.654,33.654,0,0,1-.991,8.591,23.393,23.393,0,0,1-2.789,5.972H50.309c-5.064,0-9.38-2.984-12.584-4.982-.709-.442-1.593-1.051-2.525-1.716a3.871,3.871,0,0,0-6.18-4.663c-1.258,1.711-2.423,4.426-5.674,9.519-2.517,3.941-4.453,6.014-5.383,6.682a4.569,4.569,0,0,0,3.2,1.131c1.552-.138,3.026-1.285,4.376-3.41l4.957-7.8A8.806,8.806,0,0,1,32.437,30.7a12.18,12.18,0,0,1,.382,3.853,8.914,8.914,0,0,1,2.938-1.495,7.254,7.254,0,0,1,2.335-.326,6.582,6.582,0,0,1,1.293,2.48,8.914,8.914,0,0,1,.527,2.427,13.793,13.793,0,0,1,2.359-1.2,10.9,10.9,0,0,1,2.158-.508s2.831,1.734,2.831,7.689c0,5.306-1.655,8-1.655,8,3.206-.119,4.936-1.476,5.775-6.873,0,0,3.007-.538,3.007,2.387,0,5.682-6.609,11.825-6.609,11.825a5.9,5.9,0,0,0,2.861.23c2.187-.316,5.189-2.176,7.078-3.486a121.656,121.656,0,0,0-1.765,17.363,13.484,13.484,0,0,0,3.562,9.527,13.523,13.523,0,0,0,3.54-9.527,120.338,120.338,0,0,0-1.8-17.4c1.887,1.311,4.922,3.2,7.13,3.522"/>
      <path d="M50.8,65.726,48.787,74.9s3.764-1.4,5.021-6.706l2.011-9.177s-3.763,1.4-5.021,6.7"/>
      <path d="M63.2,59.021,65.21,68.2c1.259,5.309,5.022,6.7,5.022,6.7L68.22,65.726c-1.258-5.309-5.022-6.7-5.022-6.7"/>
      <path d="M43.693,68.618a14.791,14.791,0,0,0-1.754-.576l7.824-6.83a4.969,4.969,0,0,1-1.791,0,5.84,5.84,0,0,1-1.528-.393l-5.769,6.064a17.256,17.256,0,0,0-.763-2.9,2.893,2.893,0,0,0-5.409-.073,2.112,2.112,0,0,1,.847-.576,2.172,2.172,0,0,1,2.787,1.3c.262.716.578,1.624.871,2.626a17.533,17.533,0,0,0-2.982-.773,2.894,2.894,0,0,0-2.7,4.686,2.16,2.16,0,0,1,2.4-2.821c.8.128,1.826.31,2.919.569l.089.023A18.2,18.2,0,0,0,36.472,71.3,2.894,2.894,0,0,0,39.26,75.94a2.16,2.16,0,0,1-1.3-3.47,37.75,37.75,0,0,1,2.6-2.992c.932.306,1.774.629,2.444.9a2.16,2.16,0,0,1,.62,3.654,2.894,2.894,0,0,0,.076-5.409"/>
      <path d="M83,66.487a17.332,17.332,0,0,0-2.98.774c.29-1,.608-1.911.87-2.627a2.172,2.172,0,0,1,2.788-1.3,2.146,2.146,0,0,1,.847.577,2.893,2.893,0,0,0-5.409.072,16.791,16.791,0,0,0-.764,2.9l-5.77-6.064a5.855,5.855,0,0,1-1.527.393,4.983,4.983,0,0,1-1.793,0l7.826,6.83a14.964,14.964,0,0,0-1.754.575,2.892,2.892,0,0,0,.076,5.409,2.132,2.132,0,0,1-.6-.83,2.172,2.172,0,0,1,1.218-2.823c.67-.266,1.512-.589,2.443-.9a37.786,37.786,0,0,1,2.6,2.992,2.173,2.173,0,0,1-.367,3.053,2.139,2.139,0,0,1-.935.417A2.893,2.893,0,0,0,82.555,71.3a17.917,17.917,0,0,0-2.26-2.359l.087-.023c1.094-.259,2.118-.441,2.919-.569a2.157,2.157,0,0,1,2.4,2.821A2.893,2.893,0,0,0,83,66.487"/>
      <path d="M59.514,0a59.514,59.514,0,1,0,59.513,59.514A59.582,59.582,0,0,0,59.514,0m0,3.886A55.628,55.628,0,1,1,3.887,59.514,55.629,55.629,0,0,1,59.514,3.886"/>
      <path d="M94.843,80.886v4.347H80.932V80.886H66.464v4.347H52.553V80.886H38.083v4.347H24.176V80.886H12.412a51.923,51.923,0,0,0,8.063,12.526,7.556,7.556,0,0,0,3.735.887c5.889,0,5.814-4.825,11.741-4.825S41.875,94.3,47.763,94.3s5.814-4.825,11.74-4.825S65.43,94.3,71.317,94.3s5.814-4.825,11.741-4.825S88.982,94.3,94.87,94.3a7.518,7.518,0,0,0,3.647-.844,51.827,51.827,0,0,0,8.1-12.569Z"/>
      <path d="M59.514,104.248a2.838,2.838,0,1,1,2.837-2.838,2.841,2.841,0,0,1-2.837,2.838M63.7,96.792a3.178,3.178,0,0,0-.982.17l0-.006a3.205,3.205,0,0,0-6.41,0v.006a3.155,3.155,0,0,0-.98-.17,3.2,3.2,0,0,0-.983,6.24,3.2,3.2,0,1,0,5.167,3.763,3.2,3.2,0,1,0,5.167-3.763,3.2,3.2,0,0,0-.982-6.24"/>
      <path d="M83.057,101.116a2.193,2.193,0,1,1,2.192-2.192,2.195,2.195,0,0,1-2.192,2.192m3.232-5.76a2.434,2.434,0,0,0-.756.131v0a2.476,2.476,0,1,0-4.951,0v0a2.446,2.446,0,0,0-.758-.131,2.469,2.469,0,0,0-.76,4.82,2.469,2.469,0,1,0,3.993,2.906,2.469,2.469,0,1,0,3.993-2.906,2.469,2.469,0,0,0-.761-4.82"/>
      <path d="M35.986,101.116a2.193,2.193,0,1,1,2.194-2.192,2.2,2.2,0,0,1-2.194,2.192m3.233-5.76a2.439,2.439,0,0,0-.756.131v0a2.477,2.477,0,0,0-4.953,0l0,0A2.464,2.464,0,1,0,32,100.176a2.468,2.468,0,1,0,3.991,2.906,2.469,2.469,0,1,0,3.992-2.906,2.469,2.469,0,0,0-.759-4.82"/>
    </g>
    <g>
      <path d="M160.348,77.056,157.528,80v5.31H152.7v-21h4.83v9.81l9.3-9.81h5.4l-8.7,9.36,9.209,11.64h-5.669Z"/>
      <path d="M174.778,74.806c0-6.24,4.86-10.86,11.49-10.86,6.6,0,11.489,4.59,11.489,10.86s-4.89,10.859-11.489,10.859C179.638,85.665,174.778,81.046,174.778,74.806Zm18.06,0a6.572,6.572,0,1,0-6.57,6.72A6.406,6.406,0,0,0,192.838,74.806Z"/>
      <path d="M221.727,85.306l-.03-12.6-6.18,10.38h-2.19l-6.149-10.11v12.33h-4.56v-21h4.02l7.859,13.05,7.74-13.05h3.99l.06,21Z"/>
      <path d="M251.577,85.306l-.03-12.6-6.18,10.38h-2.19l-6.149-10.11v12.33h-4.561v-21h4.02l7.86,13.05,7.74-13.05h3.989l.06,21Z"/>
      <path d="M262.137,76.066V64.306H267v11.58c0,3.99,1.74,5.64,4.68,5.64,2.97,0,4.68-1.65,4.68-5.64V64.306h4.8v11.76c0,6.179-3.54,9.6-9.509,9.6S262.137,82.245,262.137,76.066Z"/>
      <path d="M306.416,64.306v21h-3.99l-10.469-12.75v12.75h-4.8v-21h4.02l10.439,12.75V64.306Z"/>
      <path d="M328.856,81.406v3.9H312.6v-21h15.869v3.9h-11.04v4.56h9.75v3.78h-9.75v4.86Z"/>
    </g>
  </g>
</svg>
